:version 1.10
:name ASF
:units
  mass 1
  length 1
  angle deg
:documentation
  ASF file generated by Kaydara
:root
  axis xyz
  order  tx ty tz rx ry rz
  position 0 0 0
  orientation 0 0 0
:bonedata
  begin
    id 1
    name lfemurDummy
    direction 0.61522 -0.761478 0.204097
    length 5.68318
    axis 0 -0 0 xyz
  end
  begin
    id 2
    name lfemur
    direction 0.34202 -0.939693 -5.84747e-008
    length 16.9147
    axis 0 -0 20 xyz
    dof rx ry rz
    limits( -inf , inf )
( -inf , inf )
( -inf , inf )

  end
  begin
    id 3
    name ltibia
    direction 0.34202 -0.939693 1.20839e-009
    length 18.0532
    axis 0 -0 20 xyz
    dof rz ry rx
    limits( -inf , inf )
( -inf , inf )
( -inf , inf )

  end
  begin
    id 4
    name lfoot
    direction 0.0841971 -0.23133 0.969225
    length 5.23822
    axis -90 7.62852e-016 20 xyz
    dof ry rx rz
    limits( -inf , inf )
( -inf , inf )
( -inf , inf )

  end
  begin
    id 5
    name ltoes
    direction 0 0 0
    length 0
    axis 0 0 0 xyz
    dof rz ry rx
    limits( -inf , inf )
( -inf , inf )
( -inf , inf )

  end
  begin
    id 6
    name rfemurDummy
    direction -0.625247 -0.75382 0.202044
    length 5.74091
    axis 0 -0 0 xyz
  end
  begin
    id 7
    name rfemur
    direction -0.34202 -0.939693 -1.47013e-008
    length 16.4922
    axis 0 -0 -20 xyz
    dof rx ry rz
    limits( -inf , inf )
( -inf , inf )
( -inf , inf )

  end
  begin
    id 8
    name rtibia
    direction -0.34202 -0.939693 -7.74345e-010
    length 18.2421
    axis 0 -0 -20 xyz
    dof rz ry rx
    limits( -inf , inf )
( -inf , inf )
( -inf , inf )

  end
  begin
    id 9
    name rfoot
    direction -0.124331 -0.341598 0.931586
    length 5.45787
    axis -90 -7.62852e-016 -20 xyz
    dof ry rx rz
    limits( -inf , inf )
( -inf , inf )
( -inf , inf )

  end
  begin
    id 10
    name rtoes
    direction 0 0 0
    length 0
    axis 0 0 0 xyz
    dof rz ry rx
    limits( -inf , inf )
( -inf , inf )
( -inf , inf )

  end
  begin
    id 11
    name lowerbackDummy
    direction 0 0 0
    length 0
    axis 0 -0 0 xyz
  end
  begin
    id 12
    name lowerback
    direction -0.0218484 0.994884 -0.0986304
    length 4.45607
    axis 0 -0 0 xyz
    dof rx ry rz
    limits( -inf , inf )
( -inf , inf )
( -inf , inf )

  end
  begin
    id 13
    name upperback
    direction -0.00973057 0.999717 -0.0217111
    length 4.47449
    axis 0 -0 0 xyz
    dof rx ry rz
    limits( -inf , inf )
( -inf , inf )
( -inf , inf )

  end
  begin
    id 14
    name thorax
    direction -0.000928171 0.999699 0.0245198
    length 4.50973
    axis 0 -0 0 xyz
    dof rx ry rz
    limits( -inf , inf )
( -inf , inf )
( -inf , inf )

  end
  begin
    id 15
    name rclavicle
    direction -0.9009 0.425937 -0.0834055
    length 7.28587
    axis 0 -0 0 xyz
    dof rx ry rz
    limits( -inf , inf )
( -inf , inf )
( -inf , inf )

  end
  begin
    id 16
    name rhumerus
    direction -1 -2.23604e-007 -1.42637e-007
    length 13.5704
    axis 180 30 90 xyz
    dof rx ry rz
    limits( -inf , inf )
( -inf , inf )
( -inf , inf )

  end
  begin
    id 17
    name rradius
    direction -1 5.68281e-008 -4.4952e-007
    length 8.06782
    axis 180 30 90 xyz
    dof rz ry rx
    limits( -inf , inf )
( -inf , inf )
( -inf , inf )

  end
  begin
    id 18
    name rwrist
    direction -1 1.51393e-007 1.38143e-007
    length 4.03391
    axis -90 -90 0 xyz
    dof rz rx ry
    limits( -inf , inf )
( -inf , inf )
( -inf , inf )

  end
  begin
    id 19
    name rthumb
    direction 0 0 0
    length 0
    axis 0 0 0 xyz
    dof ry rx rz
    limits( -inf , inf )
( -inf , inf )
( -inf , inf )

  end
  begin
    id 20
    name rhand
    direction -1 -3.34077e-007 -5.59631e-007
    length 1.29744
    axis -90 -90 0 xyz
    dof ry rx rz
    limits( -inf , inf )
( -inf , inf )
( -inf , inf )

  end
  begin
    id 21
    name rfingers
    direction 0 0 0
    length 0
    axis 0 0 0 xyz
    dof rz ry rx
    limits( -inf , inf )
( -inf , inf )
( -inf , inf )

  end
  begin
    id 22
    name lclavicle
    direction 0.940017 0.332249 -0.0773232
    length 8.29589
    axis 0 -0 0 xyz
    dof rx ry rz
    limits( -inf , inf )
( -inf , inf )
( -inf , inf )

  end
  begin
    id 23
    name lhumerus
    direction 1 7.41158e-008 -1.44768e-008
    length 12.0042
    axis 180 -30 -90 xyz
    dof rx ry rz
    limits( -inf , inf )
( -inf , inf )
( -inf , inf )

  end
  begin
    id 24
    name lradius
    direction 1 -1.32972e-007 3.10821e-007
    length 8.1902
    axis 180 -30 -90 xyz
    dof rz ry rx
    limits( -inf , inf )
( -inf , inf )
( -inf , inf )

  end
  begin
    id 25
    name lwrist
    direction 1 3.08957e-007 4.01394e-007
    length 4.09509
    axis -90 90 0 xyz
    dof rz rx ry
    limits( -inf , inf )
( -inf , inf )
( -inf , inf )

  end
  begin
    id 26
    name lthumb
    direction 0 0 0
    length 0
    axis 0 0 0 xyz
    dof ry rx rz
    limits( -inf , inf )
( -inf , inf )
( -inf , inf )

  end
  begin
    id 27
    name lhand
    direction 1 -1.64125e-007 -6.99514e-007
    length 1.37229
    axis -90 90 0 xyz
    dof ry rx rz
    limits( -inf , inf )
( -inf , inf )
( -inf , inf )

  end
  begin
    id 28
    name lfingers
    direction 0 0 0
    length 0
    axis 0 0 0 xyz
    dof rz ry rx
    limits( -inf , inf )
( -inf , inf )
( -inf , inf )

  end
  begin
    id 29
    name lowerneck
    direction -0.030798 0.998024 0.0547665
    length 3.93918
    axis 0 -0 0 xyz
    dof rx ry rz
    limits( -inf , inf )
( -inf , inf )
( -inf , inf )

  end
  begin
    id 30
    name upperneck
    direction 0.0531588 0.996611 -0.0627736
    length 3.95491
    axis 0 -0 0 xyz
    dof rx ry rz
    limits( -inf , inf )
( -inf , inf )
( -inf , inf )

  end
  begin
    id 31
    name head
    direction 0 0 0
    length 0
    axis 0 0 0 xyz
    dof rx ry rz
    limits( -inf , inf )
( -inf , inf )
( -inf , inf )

  end
:hierarchy
  begin
    root lfemurDummy rfemurDummy lowerbackDummy
    lfemurDummy lfemur
    lfemur ltibia
    ltibia lfoot
    lfoot ltoes
    rfemurDummy rfemur
    rfemur rtibia
    rtibia rfoot
    rfoot rtoes
    lowerbackDummy lowerback
    lowerback upperback
    upperback thorax
    thorax rclavicle lclavicle lowerneck
    rclavicle rhumerus
    rhumerus rradius
    rradius rwrist
    rwrist rthumb rhand
    rhand rfingers
    lclavicle lhumerus
    lhumerus lradius
    lradius lwrist
    lwrist lthumb lhand
    lhand lfingers
    lowerneck upperneck
    upperneck head
  end

:SAMPLES-PER-SECOND 30
:FULLY-SPECIFIED
:DEGREES
118
root  8.340488644 39.94977756 0.6526844239 -162.0700073 -69.21600342 157.4819946
lowerback  15.83450031 2.415770054 1.296919942
upperback  4.055510044 3.212239981 1.247509956
thorax  -4.549240112 1.467159986 -0.03250319883
lowerneck  -5.468999863 8.232899666 0.6103439927
upperneck  9.310500145 11.70639992 -7.663700104
head  4.181260109 5.374229908 -1.786620021
lclavicle  0 -9.442270133e-015 7.951389973e-016
lhumerus  0.04063630104 -9.189100266 70.68099976
lradius  3.013994788e-031 -1.839749835e-031 148.6000061
lwrist  -7.062250077e-031 -0 8.685750008
lhand  -1.496451383e-031 -27.76390076 20.11240005
lfingers  90 7.125020027 -90
lthumb  89.89689403 5.08795885 91.16245106
rclavicle  0 -9.442270133e-015 7.951389973e-016
rhumerus  -2.144999981 7.190539837 -65.8934021
rradius  -2.347446651e-031 2.637866232e-031 131.6660004
rwrist  7.062250077e-031 -0 -22.40500069
rhand  -7.920061211e-032 -33.2840004 9.303460121
rfingers  -90 -7.125020027 -90
rthumb  -92.93752616 -24.25625642 -97.11982154
rfemur  -19.7133007 15.73960018 -6.431169987
rtibia  -0 0 58.00770187
rfoot  -4.423424409e-032 -3.759340048 -4.690649986
rtoes  5.373923086 19.29304026 -105.8922705
lfemur  -22.81629944 12.57260036 -11.91609955
ltibia  -0 0 59.37039948
lfoot  -0 6.549459934 -8.728099823
ltoes  -4.250644065 -19.5611806 -102.515957
119
root  8.245399806 39.89911117 0.8239844653 -161.8909912 -68.85299683 157.1900024
lowerback  16.22820091 2.445830107 0.8001030087
upperback  4.147940159 3.157550097 1.111279964
thorax  -4.683050156 1.437909961 0.1010930017
lowerneck  -5.127709866 8.382599831 0.6949040294
upperneck  8.505760193 11.8064003 -7.252250195
head  4.277870178 5.500879765 -1.898810029
lclavicle  0 -9.442270133e-015 7.951389973e-016
lhumerus  -1.587640047 -9.695429802 70.67489624
lradius  3.010972119e-031 -1.844692639e-031 148.5059967
lwrist  -7.062250077e-031 -1.765562519e-031 9.15571022
lhand  -1.496451383e-031 -27.76390076 20.11240005
lfingers  90 7.125020027 -90
lthumb  89.89689403 5.08795885 91.16245106
rclavicle  0 -9.442270133e-015 7.951389973e-016
rhumerus  -4.000070095 6.557710171 -65.42179871
rradius  -2.25201076e-031 2.719796238e-031 129.625
rwrist  2.118675023e-030 8.827812596e-032 -24.08009911
rhand  -7.920061211e-032 -33.2840004 9.303460121
rfingers  -90 -7.125020027 -90
rthumb  -92.93752616 -24.25625642 -97.11982154
rfemur  -20.69849968 15.72329998 -6.990149975
rtibia  -0 0 59.4314003
rfoot  -4.42276414e-032 -3.626830101 -2.275219917
rtoes  5.373923086 19.29304026 -105.8922705
lfemur  -23.22850037 12.45049953 -11.42949963
ltibia  -0 0 59.21630096
lfoot  -0 6.844490051 -9.815050125
ltoes  -4.250644065 -19.5611806 -102.515957
120
root  8.13064425 39.83844547 0.9875666438 -161.5329895 -68.54199982 156.6700134
lowerback  16.52260017 2.485949993 0.3330990076
upperback  4.207359791 3.113500118 0.8560230136
thorax  -4.788969994 1.415740013 0.09394860268
lowerneck  -4.519899845 8.487259865 1.239179969
upperneck  7.945769787 11.88449955 -7.540909767
head  4.028110027 5.579299927 -2.115780115
lclavicle  0 -9.442270133e-015 7.951389973e-016
lhumerus  -3.631139994 -10.43150043 70.88610077
lradius  3.003154215e-031 -1.857393011e-031 148.2640076
lwrist  0 -1.765562519e-031 9.346859932
lhand  -1.496451383e-031 -27.76390076 20.11240005
lfingers  90 7.125020027 -90
lthumb  89.89689403 5.08795885 91.16245106
rclavicle  0 -9.442270133e-015 7.951389973e-016
rhumerus  -6.166609764 6.047039986 -65.17269897
rradius  -2.147851958e-031 2.802780049e-031 127.4639969
rwrist  1.412450015e-030 -8.827812596e-032 -25.5102005
rhand  -7.920061211e-032 -33.2840004 9.303460121
rfingers  -90 -7.125020027 -90
rthumb  -92.93752616 -24.25625642 -97.11982154
rfemur  -21.44029999 15.68050003 -7.509910107
rtibia  -0 0 60.72090149
rfoot  -4.698827398e-032 -3.556999922 0.174037993
rtoes  5.373923086 19.29304026 -105.8922705
lfemur  -23.42169952 12.00769997 -10.98919964
ltibia  -0 0 58.7458992
lfoot  -0 6.463479996 -9.883769989
ltoes  -4.250644065 -19.5611806 -102.515957
121
root  8.011555859 39.74999856 1.145353374 -161.1440125 -68.26799774 156.1480103
lowerback  16.75099945 2.519330025 -0.04760599881
upperback  4.326320171 3.062099934 0.5178940296
thorax  -4.786240101 1.38815999 -0.04339240119
lowerneck  -4.43114996 8.585829735 1.732229948
upperneck  7.708940029 11.98530006 -7.736249924
head  3.986749887 5.647649765 -2.265729904
lclavicle  0 -9.442270133e-015 7.951389973e-016
lhumerus  -5.874710083 -11.13669968 71.30190277
lradius  2.990605405e-031 -1.877531184e-031 147.8789978
lwrist  -1.412450015e-030 -0 9.29831028
lhand  -1.496451383e-031 -27.76390076 20.11240005
lfingers  90 7.125020027 -90
lthumb  89.89689403 5.08795885 91.16245106
rclavicle  0 -9.442270133e-015 7.951389973e-016
rhumerus  -8.277469635 5.431000233 -65.16239929
rradius  -2.033086953e-031 2.887109537e-031 125.1529999
rwrist  1.412450015e-030 8.827812596e-032 -26.7173996
rhand  -7.920061211e-032 -33.2840004 9.303460121
rfingers  -90 -7.125020027 -90
rthumb  -92.93752616 -24.25625642 -97.11982154
rfemur  -22.03129959 15.51150036 -7.898970127
rtibia  -0 0 61.77190018
rfoot  -6.632734147e-032 -3.428999901 2.27850008
rtoes  5.373923086 19.29304026 -105.8922705
lfemur  -23.59300041 11.60779953 -10.52400017
ltibia  -0 0 58.01480103
lfoot  -0 5.532670021 -9.230950356
ltoes  -4.250644065 -19.5611806 -102.515957
122
root  7.880244668 39.64311194 1.295984448 -160.9639893 -68.15100098 155.8160095
lowerback  16.93309975 2.441940069 -0.4429520071
upperback  4.54253006 2.860569954 0.318569988
thorax  -4.662660122 1.283560038 0.009340249933
lowerneck  -4.684080124 8.778269768 1.46905005
upperneck  7.486549854 12.23209953 -7.479959965
head  3.926889896 5.775149822 -2.110450029
lclavicle  0 -9.442270133e-015 7.951389973e-016
lhumerus  -8.434370041 -11.33110046 72.04579926
lradius  2.975468597e-031 -1.901428585e-031 147.4199982
lwrist  -7.062250077e-031 1.765562519e-031 9.123999596
lhand  -1.496451383e-031 -27.76390076 20.11240005
lfingers  90 7.125020027 -90
lthumb  89.89689403 5.08795885 91.16245106
rclavicle  0 -9.442270133e-015 7.951389973e-016
rhumerus  -10.10509968 5.051249981 -65.20659637
rradius  -1.903193752e-031 2.974339856e-031 122.6139984
rwrist  0 1.324171889e-031 -27.46089935
rhand  -7.920061211e-032 -33.2840004 9.303460121
rfingers  -90 -7.125020027 -90
rthumb  -92.93752616 -24.25625642 -97.11982154
rfemur  -22.27099991 15.34230042 -7.994150162
rtibia  -0 0 62.45470047
rfoot  -4.421564341e-032 -3.372649908 3.913450003
rtoes  5.373923086 19.29304026 -105.8922705
lfemur  -23.62299919 11.11750031 -9.879309654
ltibia  -0 0 57.05680084
lfoot  -0 4.227940083 -7.801099777
ltoes  -4.250644065 -19.5611806 -102.515957
123
root  7.725355193 39.52755665 1.433988913 -160.4920044 -68.31500244 155.0119934
lowerback  17.12299919 2.235399961 -0.9962990284
upperback  4.796589851 2.45923996 0.1414529979
thorax  -4.507209778 1.078639984 0.2171490043
lowerneck  -4.892529964 9.041250229 1.109099984
upperneck  7.299680233 12.57999992 -7.191669941
head  3.864330053 5.950900078 -1.92493999
lclavicle  0 -9.442270133e-015 7.951389973e-016
lhumerus  -11.39999962 -11.14509964 72.88279724
lradius  2.961752789e-031 -1.922723187e-031 147.0090027
lwrist  -1.412450015e-030 -0 9.151679993
lhand  -1.496451383e-031 -27.76390076 20.11240005
lfingers  90 7.125020027 -90
lthumb  89.89689403 5.08795885 91.16245106
rclavicle  0 -9.442270133e-015 7.951389973e-016
rhumerus  -11.90279961 4.942009926 -65.3246994
rradius  -1.757283329e-031 3.06280906e-031 119.8450012
rwrist  1.412450015e-030 4.413906298e-032 -27.53980064
rhand  -7.920061211e-032 -33.2840004 9.303460121
rfingers  -90 -7.125020027 -90
rthumb  -92.93752616 -24.25625642 -97.11982154
rfemur  -21.87199974 15.09570026 -8.0311203
rtibia  -0 0 62.63800049
rfoot  -4.422223952e-032 -3.514679909 5.304560184
rtoes  5.373923086 19.29304026 -105.8922705
lfemur  -23.3864994 10.15789986 -9.258589745
ltibia  -0 0 55.8504982
lfoot  4.418734281e-032 2.6786201 -5.497179985
ltoes  -4.250644065 -19.5611806 -102.515957
124
root  7.555644719 39.38311179 1.552873334 -159.8760071 -68.51699829 154.0559998
lowerback  17.21260071 2.147530079 -1.616289973
upperback  4.914420128 2.209150076 -0.1327479929
thorax  -4.438990116 0.9523739815 0.3295400143
lowerneck  -4.579219818 9.169610023 1.262030005
upperneck  7.092870235 12.71580029 -7.099699974
head  3.741709948 6.041120052 -1.92956996
lclavicle  0 -9.442270133e-015 7.951389973e-016
lhumerus  -14.63539982 -11.17339993 73.87799835
lradius  2.94740925e-031 -1.944639491e-031 146.5839996
lwrist  -1.412450015e-030 1.765562519e-031 9.778300285
lhand  -1.496451383e-031 -27.76390076 20.11240005
lfingers  90 7.125020027 -90
lthumb  89.89689403 5.08795885 91.16245106
rclavicle  0 -9.442270133e-015 7.951389973e-016
rhumerus  -14.21730042 4.752669811 -65.5039978
rradius  -1.608915355e-031 3.143284177e-031 117.1060028
rwrist  1.412450015e-030 2.869039094e-031 -27.56110001
rhand  -7.920061211e-032 -33.2840004 9.303460121
rfingers  -90 -7.125020027 -90
rthumb  -92.93752616 -24.25625642 -97.11982154
rfemur  -21.21260071 14.8767004 -8.076789856
rtibia  -0 0 62.28850174
rfoot  -0 -3.824609995 6.617229939
rtoes  5.373923086 19.29304026 -105.8922705
lfemur  -23.02359962 9.010680199 -8.631159782
ltibia  -0 0 54.43239975
lfoot  4.414703626e-032 1.088960052 -2.735189915
ltoes  -4.250644065 -19.5611806 -102.515957
125
root  7.3632 39.21377828 1.641008798 -159.4580078 -68.45899963 153.3479919
lowerback  17.0781002 1.909739971 -2.866130114
upperback  5.180029869 1.679970026 0.04326960072
thorax  -4.115479946 0.6805440187 1.339239955
lowerneck  -4.827579975 9.598079681 0.03173990175
upperneck  6.954060078 13.34980011 -6.876550198
head  3.648430109 6.325210094 -1.607489944
lclavicle  0 -9.442270133e-015 7.951389973e-016
lhumerus  -18.25779915 -9.765569687 75.58830261
lradius  2.930774041e-031 -1.969621171e-031 146.0970001
lwrist  -7.062250077e-031 -1.765562519e-031 10.40359974
lhand  -1.496451383e-031 -27.76390076 20.11240005
lfingers  90 7.125020027 -90
lthumb  89.89689403 5.08795885 91.16245106
rclavicle  0 -9.442270133e-015 7.951389973e-016
rhumerus  -15.63809967 5.937280178 -65.35160065
rradius  -1.454681394e-031 3.217568349e-031 114.3280029
rwrist  7.062250077e-031 1.103476575e-031 -28.04529953
rhand  -7.920061211e-032 -33.2840004 9.303460121
rfingers  -90 -7.125020027 -90
rthumb  -92.93752616 -24.25625642 -97.11982154
rfemur  -20.41900063 14.98379993 -8.082309723
rtibia  -0 0 61.7120018
rfoot  -8.866455774e-032 -5.351270199 7.062670231
rtoes  5.373923086 19.29304026 -105.8922705
lfemur  -22.4435997 8.14000988 -7.94438982
ltibia  -0 0 52.80089951
lfoot  4.827823926e-032 -0.3935939968 0.1187639982
ltoes  -4.250644065 -19.5611806 -102.515957
